<svg xmlns="http://www.w3.org/2000/svg" version="1.1" xmlns:xlink="http://www.w3.org/1999/xlink" xmlns:svgjs="http://svgjs.dev/svgjs" width="2000" height="1500" viewBox="0 0 2000 1500"><rect width="2000" height="1500" fill="#000000"></rect><g transform="matrix(0.75,0,0,0.75,249.67638483964993,0.05154664723022506)"><svg viewBox="0 0 343 343" data-background-color="#ffffff" preserveAspectRatio="xMidYMid meet" height="1999" width="2000" xmlns="http://www.w3.org/2000/svg" xmlns:xlink="http://www.w3.org/1999/xlink"><g id="tight-bounds" transform="matrix(1,0,0,1,0.0740000000000407,0.07400000000001228)"><svg viewBox="0 0 342.85155851775386 342.85155851775386" height="342.85155851775386" width="342.85155851775386"><g><svg></svg></g><g><svg viewBox="0 0 342.85155851775386 342.85155851775386" height="342.85155851775386" width="342.85155851775386"><g><path d="M0 171.426c0-94.676 76.75-171.426 171.426-171.426 94.676 0 171.426 76.75 171.426 171.426 0 94.676-76.75 171.426-171.426 171.426-94.676 0-171.426-76.75-171.426-171.426zM171.426 340.215c93.22 0 168.789-75.57 168.789-168.789 0-93.22-75.57-168.789-168.789-168.789-93.22 0-168.789 75.57-168.789 168.789 0 93.22 75.57 168.789 168.789 168.789z" data-fill-palette-color="tertiary" fill="#ffffff" stroke="transparent"></path><ellipse rx="164.56874808852186" ry="164.56874808852186" cx="171.42577925887693" cy="171.42577925887693" fill="#ffffff" stroke="transparent" stroke-width="0" fill-opacity="1" data-fill-palette-color="tertiary"></ellipse></g><g transform="matrix(1,0,0,1,64.84655864529837,133.1547583933834)"><svg viewBox="0 0 213.1584412271571 76.54204173098708" height="76.54204173098708" width="213.1584412271571"><g><svg viewBox="0 0 213.1584412271571 76.54204173098708" height="76.54204173098708" width="213.1584412271571"><g><svg viewBox="0 0 213.1584412271571 76.54204173098708" height="76.54204173098708" width="213.1584412271571"><g transform="matrix(1,0,0,1,0,47.30605250417049)"><svg viewBox="0 0 213.1584412271571 29.235989226816592" height="29.235989226816592" width="213.1584412271571"><g id="textblocktransform"><svg viewBox="0 0 213.1584412271571 29.235989226816592" height="29.235989226816592" width="213.1584412271571" id="textblock"><g><svg viewBox="0 0 213.1584412271571 29.235989226816592" height="29.235989226816592" width="213.1584412271571"><g transform="matrix(1,0,0,1,0,0)"><svg width="213.1584412271571" viewBox="1.25 -34.95 258.08 35.400000000000006" height="29.235989226816592" data-palette-color="#ffffff"><path d="M17.9-34.1L17.9-34.1 29.8-6.8Q30.65-4.95 31.2-3.95 31.75-2.95 32.33-2.55 32.9-2.15 33.65-2L33.65-2Q33.85-1.35 33.9-0.9 33.95-0.45 33.95 0.15L33.95 0.15Q33.45 0.1 32.4 0.08 31.35 0.05 30.2 0.03 29.05 0 28.25 0L28.25 0Q27.65 0 26.85 0.03 26.05 0.05 25.2 0.08 24.35 0.1 23.68 0.13 23 0.15 22.6 0.15L22.6 0.15Q22.6-0.45 22.68-1 22.75-1.55 22.95-2L22.95-2Q25-2.25 25.38-2.93 25.75-3.6 24.75-5.9L24.75-5.9 17.8-22.15Q17.15-23.7 16.65-24.9 16.15-26.1 15.45-27.95L15.45-27.95 15.7-27.95Q15.1-26.05 14.63-24.73 14.15-23.4 13.7-22.2L13.7-22.2 8-7.35Q6.9-4.4 7.33-3.28 7.75-2.15 9.8-2L9.8-2Q10-1.55 10.08-1 10.15-0.45 10.15 0.15L10.15 0.15Q9.6 0.1 8.8 0.08 8 0.05 7.13 0.03 6.25 0 5.4 0L5.4 0Q4.15 0 3.05 0.05 1.95 0.1 1.25 0.15L1.25 0.15Q1.25-0.35 1.33-0.93 1.4-1.5 1.6-1.95L1.6-1.95Q2.5-2.15 3.1-2.65 3.7-3.15 4.28-4.28 4.85-5.4 5.6-7.35L5.6-7.35 15.95-33.9Q16.45-34 16.88-34.05 17.3-34.1 17.9-34.1ZM9.6-13.25L22.45-13.25 22.9-11Q19.55-11 15.73-10.95 11.9-10.9 8.8-10.8L8.8-10.8 9.6-13.25ZM60.05 0.45L60.05 0.45Q59.05-1.2 58.4-2.33 57.75-3.45 57.25-4.42 56.75-5.4 56.1-6.55L56.1-6.55Q55.15-8.35 54.25-9.8 53.35-11.25 52.17-12.75 51-14.25 49.25-16.05L49.25-16.05 50.55-15.4Q49.25-15.35 48.15-15.35 47.05-15.35 46.05-15.4L46.05-15.4 46.05-17.75Q46.75-17.65 47.35-17.6 47.95-17.55 48.6-17.55L48.6-17.55Q51.35-17.55 53.55-18.32 55.75-19.1 57.05-20.75 58.35-22.4 58.35-25L58.35-25Q58.35-27.95 56.47-29.83 54.6-31.7 50.1-31.7L50.1-31.7Q48.95-31.7 48.05-31.6 47.15-31.5 46.15-31.25L46.15-31.25 46.4-31.8 46.4-6.35Q46.4-4.7 46.7-3.78 47-2.85 47.72-2.48 48.45-2.1 49.7-2L49.7-2Q49.85-1.55 49.9-0.98 49.95-0.4 49.95 0.15L49.95 0.15Q48.9 0.05 47.75 0.03 46.6 0 45.62 0 44.65 0 44 0L44 0Q42.7 0 40.92 0.03 39.15 0.05 38 0.15L38 0.15Q38-0.4 38.05-0.95 38.1-1.5 38.25-2L38.25-2Q39.6-2.1 40.35-2.48 41.1-2.85 41.4-3.78 41.7-4.7 41.7-6.35L41.7-6.35 41.7-27.45Q41.7-29.15 41.4-30.08 41.1-31 40.35-31.4 39.6-31.8 38.25-31.8L38.25-31.8Q38.1-32.3 38.05-32.8 38-33.3 38-33.9L38-33.9Q38.75-33.85 40.5-33.83 42.25-33.8 44-33.8L44-33.8Q46.05-33.8 48.15-33.85 50.25-33.9 52.35-33.9L52.35-33.9Q56.15-33.9 58.55-32.8 60.95-31.7 62.1-29.8 63.25-27.9 63.25-25.5L63.25-25.5Q63.25-23.2 62.15-21.33 61.05-19.45 59.02-18.18 57-16.9 54.2-16.25L54.2-16.25 54.45-16.85Q55.85-15.4 56.82-14.1 57.8-12.8 58.85-11.15 59.9-9.5 61.35-7L61.35-7Q62.4-5.25 63.22-4.23 64.05-3.2 65.15-2.73 66.25-2.25 68.1-2.15L68.1-2.15Q68.1-1.55 68.07-1.05 68.05-0.55 67.9 0L67.9 0Q66.05 0 63.97 0.08 61.9 0.15 60.05 0.45ZM102.14 0.15L102.14 0.15Q102.14-0.55 102.19-1.07 102.24-1.6 102.39-2L102.39-2Q103.74-2.1 104.49-2.48 105.24-2.85 105.54-3.78 105.84-4.7 105.84-6.35L105.84-6.35 105.84-27.45Q105.84-29.15 105.54-30.05 105.24-30.95 104.49-31.35 103.74-31.75 102.39-31.8L102.39-31.8Q102.24-32.2 102.19-32.75 102.14-33.3 102.14-33.95L102.14-33.95Q103.09-33.9 104.07-33.88 105.04-33.85 106.09-33.83 107.14-33.8 108.19-33.8L108.19-33.8Q109.29-33.8 110.29-33.83 111.29-33.85 112.27-33.88 113.24-33.9 114.24-33.95L114.24-33.95Q114.24-33.3 114.19-32.75 114.14-32.2 113.99-31.8L113.99-31.8Q112.69-31.75 111.92-31.35 111.14-30.95 110.84-30.05 110.54-29.15 110.54-27.45L110.54-27.45 110.54-6.35Q110.54-4.7 110.84-3.78 111.14-2.85 111.92-2.48 112.69-2.1 113.99-2L113.99-2Q114.14-1.6 114.19-1.07 114.24-0.55 114.24 0.15L114.24 0.15Q112.74 0.05 111.19 0.03 109.64 0 108.19 0L108.19 0Q106.74 0 105.09 0.03 103.44 0.05 102.14 0.15ZM82.19 0.15L82.19 0.15Q82.19-0.55 82.24-1.07 82.29-1.6 82.44-2L82.44-2Q83.79-2.1 84.54-2.48 85.29-2.85 85.59-3.78 85.89-4.7 85.89-6.35L85.89-6.35 85.89-27.45Q85.89-29.15 85.59-30.05 85.29-30.95 84.54-31.35 83.79-31.75 82.44-31.8L82.44-31.8Q82.29-32.2 82.24-32.75 82.19-33.3 82.19-33.95L82.19-33.95Q83.14-33.9 84.12-33.88 85.09-33.85 86.14-33.83 87.19-33.8 88.24-33.8L88.24-33.8Q89.34-33.8 90.34-33.83 91.34-33.85 92.32-33.88 93.29-33.9 94.29-33.95L94.29-33.95Q94.29-33.3 94.24-32.75 94.19-32.2 94.04-31.8L94.04-31.8Q92.74-31.75 91.97-31.35 91.19-30.95 90.89-30.05 90.59-29.15 90.59-27.45L90.59-27.45 90.59-6.35Q90.59-4.7 90.89-3.78 91.19-2.85 91.97-2.48 92.74-2.1 94.04-2L94.04-2Q94.19-1.6 94.24-1.07 94.29-0.55 94.29 0.15L94.29 0.15Q92.79 0.05 91.24 0.03 89.69 0 88.24 0L88.24 0Q86.79 0 85.14 0.03 83.49 0.05 82.19 0.15ZM90.34-15.95L90.34-15.95 90.34-18.4 106.09-18.4 106.09-16.25Q104.69-16.25 102.59-16.25 100.49-16.25 98.22-16.23 95.94-16.2 93.87-16.13 91.79-16.05 90.34-15.95ZM130.34 0.45L130.34 0.45Q126.94 0.45 124.39-1.03 121.84-2.5 120.44-5.18 119.04-7.85 119.04-11.45L119.04-11.45Q119.04-14.85 120.49-17.55 121.94-20.25 124.49-21.8 127.04-23.35 130.34-23.35L130.34-23.35Q133.89-23.35 136.42-21.85 138.94-20.35 140.29-17.68 141.64-15 141.64-11.45L141.64-11.45Q141.64-8.05 140.22-5.35 138.79-2.65 136.27-1.1 133.74 0.45 130.34 0.45ZM130.74-1.95L130.74-1.95Q133.74-1.95 135.19-4.42 136.64-6.9 136.64-10.85L136.64-10.85Q136.64-13.95 135.72-16.23 134.79-18.5 133.24-19.73 131.69-20.95 129.84-20.95L129.84-20.95Q126.94-20.95 125.52-18.6 124.09-16.25 124.09-12.5L124.09-12.5Q124.09-9.15 124.92-6.78 125.74-4.4 127.24-3.18 128.74-1.95 130.74-1.95ZM153.69-11.35L153.69-7.35Q153.69-5.2 154.14-4.08 154.59-2.95 155.59-2.53 156.59-2.1 158.14-2L158.14-2Q158.29-1.6 158.34-1.07 158.39-0.55 158.39 0.15L158.39 0.15Q157.64 0.1 156.61 0.08 155.59 0.05 154.44 0.03 153.29 0 152.09 0L152.09 0Q150.34 0 148.41 0.03 146.49 0.05 145.49 0.15L145.49 0.15Q145.49-0.55 145.54-1.07 145.59-1.6 145.74-2L145.74-2Q147.09-2.1 147.84-2.48 148.59-2.85 148.89-3.78 149.19-4.7 149.19-6.35L149.19-6.35 149.19-11.35 153.69-11.35ZM152.84-15.35L153.69-14.65 153.69-10.7 149.19-10.7 149.19-16.25 153.69-21.15Q153.69-19.45 153.39-18.07 153.09-16.7 152.84-15.35L152.84-15.35ZM153.69-12.15L152.59-15.05Q153.14-16.45 153.44-17.35 153.74-18.25 154.09-18.85L154.09-18.85Q155.19-20.6 156.69-21.75 158.19-22.9 160.14-22.9L160.14-22.9Q162.04-22.9 163.59-21.7L163.59-21.7Q163.49-20.9 163.39-19.85 163.29-18.8 163.26-17.75 163.24-16.7 163.24-15.8L163.24-15.8Q162.79-15.65 162.01-15.5 161.24-15.35 160.39-15.35L160.39-15.35Q160.29-17.75 159.61-18.5 158.94-19.25 157.94-19.25L157.94-19.25Q157.09-19.25 156.09-18.28 155.09-17.3 154.39-15.7 153.69-14.1 153.69-12.15L153.69-12.15ZM153.69-21.15L149.19-10.7 149.19-16.25Q149.19-17.45 148.94-18.2 148.69-18.95 147.89-19.35 147.09-19.75 145.44-19.8L145.44-19.8Q145.44-20.35 145.54-20.8 145.64-21.25 145.89-21.65L145.89-21.65Q147.44-21.75 149.44-22.25 151.44-22.75 152.59-23.35L152.59-23.35Q153.04-23.2 153.36-22.73 153.69-22.25 153.69-21.15L153.69-21.15ZM166.44 0.15L166.44 0.15Q166.44-0.35 166.49-0.93 166.54-1.5 166.69-2L166.69-2Q168.69-2 169.41-2.93 170.14-3.85 170.14-6.35L170.14-6.35 170.14-16.25Q170.14-17.45 169.91-18.23 169.69-19 168.89-19.4 168.09-19.8 166.39-19.8L166.39-19.8Q166.39-20.35 166.49-20.8 166.59-21.25 166.84-21.65L166.84-21.65Q167.59-21.65 168.96-21.9 170.34-22.15 171.64-22.55 172.94-22.95 173.54-23.35L173.54-23.35Q173.99-23.2 174.31-22.75 174.64-22.3 174.64-21.35L174.64-21.35 174.64-6.35Q174.64-3.85 175.31-2.93 175.99-2 177.59-2L177.59-2Q177.74-1.5 177.79-0.85 177.84-0.2 177.84 0.15L177.84 0.15Q176.99 0.1 176.04 0.08 175.09 0.05 174.11 0.03 173.14 0 172.19 0L172.19 0Q171.24 0 170.21 0.03 169.19 0.05 168.24 0.08 167.29 0.1 166.44 0.15ZM171.99-29L171.99-29Q170.74-29 169.89-29.85 169.04-30.7 169.04-31.9L169.04-31.9Q169.04-33.25 169.94-34.1 170.84-34.95 171.99-34.95L171.99-34.95Q173.34-34.95 174.16-34.1 174.99-33.25 174.99-31.9L174.99-31.9Q174.99-30.75 174.11-29.88 173.24-29 171.99-29ZM182.98 0.1L182.98 0.1Q182.63-0.25 182.41-0.78 182.18-1.3 182.18-1.9L182.18-1.9Q183.23-3.35 184.71-5.43 186.18-7.5 187.83-9.83 189.48-12.15 191.06-14.38 192.63-16.6 193.88-18.43 195.13-20.25 195.78-21.3L195.78-21.3 196.78-20.7 190.78-20.7Q188.98-20.7 187.93-20.3 186.88-19.9 186.31-18.75 185.73-17.6 185.23-15.4L185.23-15.4Q184.63-15.4 183.91-15.5 183.18-15.6 182.63-15.8L182.63-15.8Q182.78-17.45 182.88-19.3 182.98-21.15 182.98-23.05L182.98-23.05Q184.03-23 185.58-22.98 187.13-22.95 188.88-22.93 190.63-22.9 192.13-22.9L192.13-22.9Q193.63-22.9 195.31-22.93 196.98-22.95 198.51-22.98 200.03-23 200.98-23.05L200.98-23.05Q201.33-22.65 201.48-22.05 201.63-21.45 201.63-20.9L201.63-20.9Q200.33-19.05 198.48-16.45 196.63-13.85 194.63-11.08 192.63-8.3 190.81-5.8 188.98-3.3 187.68-1.65L187.68-1.65 187.28-2.25 194.48-2.25Q196.28-2.25 197.28-2.65 198.28-3.05 198.76-4.23 199.23-5.4 199.38-7.8L199.38-7.8Q199.98-7.8 200.63-7.75 201.28-7.7 202.03-7.5L202.03-7.5Q202.03-6.7 202.08-5.48 202.13-4.25 202.21-3 202.28-1.75 202.43-0.85L202.43-0.85Q201.98 0.1 200.83 0.1L200.83 0.1Q199.58 0.05 198.36 0.05 197.13 0.05 195.61 0.03 194.08 0 191.88 0L191.88 0Q188.58 0 186.46 0.03 184.33 0.05 182.98 0.1ZM217.98 0.45L217.98 0.45Q214.58 0.45 212.03-1.03 209.48-2.5 208.08-5.18 206.68-7.85 206.68-11.45L206.68-11.45Q206.68-14.85 208.13-17.55 209.58-20.25 212.13-21.8 214.68-23.35 217.98-23.35L217.98-23.35Q221.53-23.35 224.06-21.85 226.58-20.35 227.93-17.68 229.28-15 229.28-11.45L229.28-11.45Q229.28-8.05 227.86-5.35 226.43-2.65 223.91-1.1 221.38 0.45 217.98 0.45ZM218.38-1.95L218.38-1.95Q221.38-1.95 222.83-4.42 224.28-6.9 224.28-10.85L224.28-10.85Q224.28-13.95 223.36-16.23 222.43-18.5 220.88-19.73 219.33-20.95 217.48-20.95L217.48-20.95Q214.58-20.95 213.16-18.6 211.73-16.25 211.73-12.5L211.73-12.5Q211.73-9.15 212.56-6.78 213.38-4.4 214.88-3.18 216.38-1.95 218.38-1.95ZM241.33-21.15L236.83-10.7 236.83-16.25Q236.83-17.45 236.58-18.2 236.33-18.95 235.53-19.35 234.73-19.75 233.08-19.8L233.08-19.8Q233.08-20.35 233.18-20.8 233.28-21.25 233.53-21.65L233.53-21.65Q235.08-21.75 237.08-22.25 239.08-22.75 240.23-23.35L240.23-23.35Q240.68-23.2 241-22.73 241.33-22.25 241.33-21.15L241.33-21.15ZM256.13-14.95L256.13-6.35Q256.13-3.75 256.85-2.88 257.58-2 259.08-2L259.08-2Q259.23-1.55 259.28-1.05 259.33-0.55 259.33 0.15L259.33 0.15Q258.23 0.05 256.83 0.03 255.43 0 253.88 0L253.88 0Q252.88 0 251.78 0.03 250.68 0.05 249.7 0.08 248.73 0.1 247.93 0.15L247.93 0.15Q247.93-0.55 247.98-1.07 248.03-1.6 248.18-2L248.18-2Q249.98-2 250.8-2.93 251.63-3.85 251.63-6.35L251.63-6.35 251.63-13.95Q251.63-17.5 250.33-18.78 249.03-20.05 246.98-20.05L246.98-20.05Q245.68-20.05 244.38-19.23 243.08-18.4 242.2-16.57 241.33-14.75 241.33-11.7L241.33-11.7 241.33-6.35Q241.33-3.85 242.08-2.93 242.83-2 244.78-2L244.78-2Q244.93-1.55 244.98-1.05 245.03-0.55 245.03 0.15L245.03 0.15Q244.33 0.1 243.33 0.08 242.33 0.05 241.23 0.03 240.13 0 239.08 0L239.08 0Q238.08 0 236.98 0.03 235.88 0.05 234.88 0.08 233.88 0.1 233.13 0.15L233.13 0.15Q233.13-0.55 233.18-1.07 233.23-1.6 233.38-2L233.38-2Q235.33-2 236.08-2.93 236.83-3.85 236.83-6.35L236.83-6.35 236.83-16.25 241.33-21.15Q241.33-20.55 241.28-19.8 241.23-19.05 240.98-18.2L240.98-18.2Q241.13-18.45 241.28-18.78 241.43-19.1 241.73-19.5L241.73-19.5Q242.58-20.65 244.45-21.88 246.33-23.1 248.98-23.1L248.98-23.1Q250.88-23.1 252.5-22.33 254.13-21.55 255.13-19.78 256.13-18 256.13-14.95L256.13-14.95Z" opacity="1" transform="matrix(1,0,0,1,0,0)" fill="#000000" class="wordmark-text-0" data-fill-palette-color="quaternary" id="text-0"></path></svg></g></svg></g></svg></g></svg></g><g transform="matrix(1,0,0,1,86.37715205784829,0)"><svg viewBox="0 0 40.404137111460535 40.404137111460535" height="40.404137111460535" width="40.404137111460535"><g><svg xmlns="http://www.w3.org/2000/svg" xmlns:xlink="http://www.w3.org/1999/xlink" version="1.1" x="0" y="0" viewBox="20 20 480 480" style="enable-background:new 0 0 512 512;" xml:space="preserve" height="40.404137111460535" width="40.404137111460535" class="icon-icon-0" data-fill-palette-color="quaternary" id="icon-0"><g fill="#ffffff" data-fill-palette-color="quaternary"><g fill="#ffffff" data-fill-palette-color="quaternary"><g fill="#ffffff" data-fill-palette-color="quaternary"><path d="M400 500H120c-2.63 0-5.21-1.07-7.07-2.931C111.07 495.21 110 492.63 110 490V270c0-5.521 4.49-10 10-10 5.51 0 10 4.479 10 10v210h260V210c0-5.51 4.49-10 10-10s10 4.49 10 10v280c0 2.63-1.07 5.21-2.931 7.069C405.21 498.93 402.63 500 400 500zM120 230c-5.51 0-10-4.49-10-10 0-5.51 4.49-10 10-10 5.51 0 10 4.49 10 10C130 225.51 125.51 230 120 230zM120 180c-5.51 0-10-4.49-10-10V30c0-2.63 1.07-5.21 2.93-7.07 1.86-1.86 4.44-2.93 7.07-2.93h280c2.63 0 5.21 1.07 7.069 2.93C408.93 24.79 410 27.37 410 30v80c0 5.52-4.49 10-10 10s-10-4.48-10-10V40H130v129.99V170C130 175.51 125.51 180 120 180zM400 170c-5.51 0-10-4.49-10-10 0-5.51 4.49-10 10-10s10 4.49 10 10C410 165.51 405.51 170 400 170z" fill="#000000" data-fill-palette-color="quaternary"></path></g><g fill="#ffffff" data-fill-palette-color="quaternary"><path d="M360 460H160c-2.63 0-5.21-1.07-7.07-2.931C151.07 455.21 150 452.63 150 450V150c0-5.51 4.49-10 10-10 5.51 0 10 4.49 10 10v290h180c0-5.51 4.49-10 10-10s10 4.49 10 10c0 1.76-0.46 3.49-1.34 5 0.88 1.51 1.34 3.24 1.34 5C370 455.51 365.51 460 360 460zM360 400c-5.51 0-10-4.48-10-10V80H180.01 180c-5.51 0-10-4.48-10-10 0-5.51 4.49-10 10-10h180c2.63 0 5.21 1.07 7.069 2.93C368.93 64.79 370 67.37 370 70v320C370 395.52 365.51 400 360 400zM160 110c-5.51 0-10-4.49-10-10 0-5.51 4.49-10 10-10 5.51 0 10 4.49 10 10C170 105.51 165.51 110 160 110z" fill="#000000" data-fill-palette-color="quaternary"></path></g><g fill="#ffffff" data-fill-palette-color="quaternary"><path d="M450 90h-50c-2.63 0-5.21-1.07-7.07-2.93S390 82.63 390 80V40c0-2.63 1.069-5.21 2.93-7.07 1.86-1.86 4.44-2.93 7.07-2.93h50c2.63 0 5.21 1.07 7.069 2.93C458.93 34.79 460 37.37 460 40v40c0 2.63-1.07 5.21-2.931 7.07C455.21 88.93 452.63 90 450 90zM410 70h30V50h-30V70z" fill="#000000" data-fill-palette-color="quaternary"></path></g><g fill="#ffffff" data-fill-palette-color="quaternary"><path d="M450 170h-50c-2.63 0-5.21-1.07-7.07-2.93S390 162.63 390 160v-40c0-2.63 1.069-5.21 2.93-7.07 1.86-1.86 4.44-2.93 7.07-2.93h50c2.63 0 5.21 1.07 7.069 2.93 1.86 1.86 2.931 4.44 2.931 7.07v40c0 2.63-1.07 5.21-2.931 7.07C455.21 168.93 452.63 170 450 170zM410 150h30v-20h-30V150z" fill="#000000" data-fill-palette-color="quaternary"></path></g><g fill="#ffffff" data-fill-palette-color="quaternary"><path d="M450 250h-50c-2.641 0-5.21-1.07-7.07-2.93S390 242.63 390 240v-40c0-2.63 1.069-5.21 2.93-7.07 1.86-1.86 4.44-2.93 7.07-2.93h50c2.63 0 5.21 1.07 7.069 2.93 1.86 1.86 2.931 4.44 2.931 7.07v40c0 2.63-1.07 5.21-2.931 7.07C455.21 248.93 452.63 250 450 250zM410 230h30v-20h-30V230z" fill="#000000" data-fill-palette-color="quaternary"></path></g><g fill="#ffffff" data-fill-palette-color="quaternary"><path d="M450 330h-50c-2.641 0-5.21-1.07-7.07-2.931-1.86-1.859-2.93-4.439-2.93-7.069v-40c0-2.63 1.069-5.21 2.93-7.07S397.37 270 400 270h50c2.63 0 5.21 1.069 7.069 2.93 1.86 1.86 2.931 4.44 2.931 7.07v40c0 2.63-1.07 5.21-2.931 7.069C455.21 328.93 452.63 330 450 330zM410 310h30v-20h-30V310z" fill="#000000" data-fill-palette-color="quaternary"></path></g><g fill="#ffffff" data-fill-palette-color="quaternary"><path d="M450 410h-50c-2.63 0-5.21-1.07-7.07-2.931-1.86-1.859-2.93-4.439-2.93-7.069v-40c0-2.63 1.069-5.21 2.93-7.07S397.37 350 400 350h50c2.63 0 5.21 1.069 7.069 2.93 1.86 1.86 2.931 4.44 2.931 7.07v40c0 2.63-1.07 5.21-2.931 7.069C455.21 408.93 452.63 410 450 410zM410 390h30v-20h-30V390z" fill="#000000" data-fill-palette-color="quaternary"></path></g><g fill="#ffffff" data-fill-palette-color="quaternary"><path d="M450 490h-50c-2.63 0-5.21-1.07-7.07-2.931-1.86-1.859-2.93-4.439-2.93-7.069v-40c0-2.63 1.069-5.21 2.93-7.07S397.37 430 400 430h50c2.63 0 5.21 1.069 7.069 2.93 1.86 1.86 2.931 4.44 2.931 7.07v40c0 2.63-1.07 5.21-2.931 7.069C455.21 488.93 452.63 490 450 490zM410 470h30v-20h-30V470z" fill="#000000" data-fill-palette-color="quaternary"></path></g><g fill="#ffffff" data-fill-palette-color="quaternary"><path d="M490 70h-40c-5.51 0-10-4.49-10-10 0-5.51 4.49-10 10-10h40c5.51 0 10 4.49 10 10C500 65.51 495.51 70 490 70z" fill="#000000" data-fill-palette-color="quaternary"></path></g><g fill="#ffffff" data-fill-palette-color="quaternary"><path d="M490 150h-40c-5.51 0-10-4.49-10-10 0-5.51 4.49-10 10-10h40c5.51 0 10 4.49 10 10C500 145.51 495.51 150 490 150z" fill="#000000" data-fill-palette-color="quaternary"></path></g><g fill="#ffffff" data-fill-palette-color="quaternary"><path d="M490 230h-40c-5.51 0-10-4.48-10-10 0-5.51 4.49-10 10-10h40c5.51 0 10 4.49 10 10C500 225.52 495.51 230 490 230z" fill="#000000" data-fill-palette-color="quaternary"></path></g><g fill="#ffffff" data-fill-palette-color="quaternary"><path d="M490 310h-40c-5.51 0-10-4.49-10-10s4.49-10 10-10h40c5.51 0 10 4.49 10 10S495.51 310 490 310z" fill="#000000" data-fill-palette-color="quaternary"></path></g><g fill="#ffffff" data-fill-palette-color="quaternary"><path d="M490 390h-40c-5.51 0-10-4.49-10-10s4.49-10 10-10h40c5.51 0 10 4.49 10 10S495.51 390 490 390z" fill="#000000" data-fill-palette-color="quaternary"></path></g><g fill="#ffffff" data-fill-palette-color="quaternary"><path d="M490 470h-40c-5.51 0-10-4.49-10-10s4.49-10 10-10h40c5.51 0 10 4.49 10 10S495.51 470 490 470z" fill="#000000" data-fill-palette-color="quaternary"></path></g><g fill="#ffffff" data-fill-palette-color="quaternary"><path d="M120 90H70c-2.63 0-5.21-1.07-7.07-2.93C61.07 85.21 60 82.63 60 80V40c0-2.63 1.07-5.21 2.93-7.07C64.79 31.07 67.37 30 70 30h50c2.63 0 5.21 1.07 7.07 2.93 1.86 1.86 2.93 4.44 2.93 7.07v40c0 2.63-1.07 5.21-2.93 7.07S122.63 90 120 90zM80 70h30V50H80V70z" fill="#000000" data-fill-palette-color="quaternary"></path></g><g fill="#ffffff" data-fill-palette-color="quaternary"><path d="M120 170H70c-2.63 0-5.21-1.07-7.07-2.93C61.07 165.21 60 162.63 60 160v-40c0-2.63 1.07-5.21 2.93-7.07 1.86-1.86 4.44-2.93 7.07-2.93h50c2.63 0 5.21 1.07 7.07 2.93 1.86 1.86 2.93 4.44 2.93 7.07v40c0 2.63-1.07 5.21-2.93 7.07S122.63 170 120 170zM80 150h30v-20H80V150z" fill="#000000" data-fill-palette-color="quaternary"></path></g><g fill="#ffffff" data-fill-palette-color="quaternary"><path d="M120 250H70c-2.63 0-5.21-1.07-7.07-2.93C61.07 245.21 60 242.63 60 240v-40c0-2.63 1.07-5.21 2.93-7.07 1.86-1.86 4.44-2.93 7.07-2.93h50c2.63 0 5.21 1.07 7.07 2.93 1.86 1.86 2.93 4.44 2.93 7.07v40c0 2.63-1.07 5.21-2.93 7.07S122.63 250 120 250zM80 230h30v-20H80V230z" fill="#000000" data-fill-palette-color="quaternary"></path></g><g fill="#ffffff" data-fill-palette-color="quaternary"><path d="M120 330H70c-2.63 0-5.21-1.07-7.07-2.931C61.07 325.21 60 322.63 60 320v-40c0-2.63 1.07-5.21 2.93-7.07 1.86-1.86 4.44-2.93 7.07-2.93h50c2.63 0 5.21 1.069 7.07 2.93S130 277.37 130 280v40c0 2.63-1.07 5.21-2.93 7.069C125.21 328.93 122.63 330 120 330zM80 310h30v-20H80V310z" fill="#000000" data-fill-palette-color="quaternary"></path></g><g fill="#ffffff" data-fill-palette-color="quaternary"><path d="M120 410H70c-2.63 0-5.21-1.07-7.07-2.931C61.07 405.21 60 402.63 60 400v-40c0-2.63 1.07-5.21 2.93-7.07 1.86-1.86 4.44-2.93 7.07-2.93h50c2.63 0 5.21 1.069 7.07 2.93S130 357.37 130 360v40c0 2.63-1.07 5.21-2.93 7.069C125.21 408.93 122.63 410 120 410zM80 390h30v-20H80V390z" fill="#000000" data-fill-palette-color="quaternary"></path></g><g fill="#ffffff" data-fill-palette-color="quaternary"><path d="M120 490H70c-2.63 0-5.21-1.07-7.07-2.931C61.07 485.21 60 482.63 60 480v-40c0-2.63 1.07-5.21 2.93-7.07 1.86-1.86 4.44-2.93 7.07-2.93h50c2.63 0 5.21 1.069 7.07 2.93S130 437.37 130 440v40c0 2.63-1.07 5.21-2.93 7.069C125.21 488.93 122.63 490 120 490zM80 470h30v-20H80V470z" fill="#000000" data-fill-palette-color="quaternary"></path></g><g fill="#ffffff" data-fill-palette-color="quaternary"><path d="M70 70H30c-5.51 0-10-4.49-10-10 0-5.51 4.49-10 10-10h40c5.51 0 10 4.49 10 10C80 65.51 75.51 70 70 70z" fill="#000000" data-fill-palette-color="quaternary"></path></g><g fill="#ffffff" data-fill-palette-color="quaternary"><path d="M70 150H30c-5.51 0-10-4.48-10-10 0-5.51 4.49-10 10-10h40c5.51 0 10 4.49 10 10C80 145.52 75.51 150 70 150z" fill="#000000" data-fill-palette-color="quaternary"></path></g><g fill="#ffffff" data-fill-palette-color="quaternary"><path d="M70 230H30c-5.51 0-10-4.49-10-10 0-5.51 4.49-10 10-10h40c5.51 0 10 4.49 10 10C80 225.51 75.51 230 70 230z" fill="#000000" data-fill-palette-color="quaternary"></path></g><g fill="#ffffff" data-fill-palette-color="quaternary"><path d="M70 310H30c-5.51 0-10-4.49-10-10s4.49-10 10-10h40c5.51 0 10 4.49 10 10S75.51 310 70 310z" fill="#000000" data-fill-palette-color="quaternary"></path></g><g fill="#ffffff" data-fill-palette-color="quaternary"><path d="M70 390H30c-5.51 0-10-4.49-10-10 0-5.521 4.49-10 10-10h40c5.51 0 10 4.479 10 10C80 385.51 75.51 390 70 390z" fill="#000000" data-fill-palette-color="quaternary"></path></g><g fill="#ffffff" data-fill-palette-color="quaternary"><path d="M70 470H30c-5.51 0-10-4.49-10-10s4.49-10 10-10h40c5.51 0 10 4.49 10 10S75.51 470 70 470z" fill="#000000" data-fill-palette-color="quaternary"></path></g><g fill="#ffffff" data-fill-palette-color="quaternary"><path d="M320 170H200c-2.63 0-5.21-1.07-7.07-2.93-1.86-1.86-2.93-4.44-2.93-7.07v-50c0-2.63 1.07-5.21 2.93-7.07 1.86-1.86 4.44-2.93 7.07-2.93h120c2.63 0 5.21 1.07 7.069 2.93 1.86 1.86 2.931 4.44 2.931 7.07v50c0 2.63-1.07 5.21-2.931 7.07C325.21 168.93 322.63 170 320 170zM210 150h100v-30H210V150z" fill="#000000" data-fill-palette-color="quaternary"></path></g><g fill="#ffffff" data-fill-palette-color="quaternary"><path d="M320 250H200c-2.63 0-5.21-1.07-7.07-2.93-1.86-1.86-2.93-4.44-2.93-7.07v-40c0-2.63 1.07-5.21 2.93-7.07 1.86-1.86 4.44-2.93 7.07-2.93h120c2.63 0 5.21 1.07 7.069 2.93 1.86 1.86 2.931 4.44 2.931 7.07v40c0 2.63-1.07 5.21-2.931 7.07C325.21 248.93 322.63 250 320 250zM210 230h100v-20H210V230z" fill="#000000" data-fill-palette-color="quaternary"></path></g><g fill="#ffffff" data-fill-palette-color="quaternary"><path d="M320 330H200c-2.63 0-5.21-1.07-7.07-2.931C191.07 325.21 190 322.63 190 320v-40c0-2.63 1.07-5.21 2.93-7.07 1.86-1.86 4.44-2.93 7.07-2.93h120c2.63 0 5.21 1.069 7.069 2.93 1.86 1.86 2.931 4.44 2.931 7.07v40c0 2.63-1.07 5.21-2.931 7.069C325.21 328.93 322.63 330 320 330zM210 310h100v-20H210V310z" fill="#000000" data-fill-palette-color="quaternary"></path></g><g fill="#ffffff" data-fill-palette-color="quaternary"><path d="M320 420H200c-2.63 0-5.21-1.07-7.07-2.931C191.07 415.21 190 412.63 190 410v-50c0-2.63 1.07-5.21 2.93-7.07 1.86-1.86 4.44-2.93 7.07-2.93h120c2.63 0 5.21 1.069 7.069 2.93 1.86 1.86 2.931 4.44 2.931 7.07v50c0 2.63-1.07 5.21-2.931 7.069C325.21 418.93 322.63 420 320 420zM210 400h100v-30H210V400z" fill="#000000" data-fill-palette-color="quaternary"></path></g></g></g></svg></g></svg></g><g></g></svg></g></svg></g></svg></g></svg></g><defs></defs></svg><rect width="342.85155851775386" height="342.85155851775386" fill="none" stroke="none" visibility="hidden"></rect></g></svg></g></svg>